<svg width="13" height="14" viewBox="0 0 13 14" fill="none" xmlns="http://www.w3.org/2000/svg">
<path fill-rule="evenodd" clip-rule="evenodd" d="M10.7186 4.39592C10.9887 4.41817 11.1902 4.65433 11.1686 4.92451C11.1647 4.96899 10.8101 9.35922 10.606 11.2008C10.4791 12.3436 9.72419 13.039 8.5846 13.0599C7.71257 13.075 6.87129 13.0835 6.04898 13.0835C5.16256 13.0835 4.29839 13.0737 3.44337 13.056C2.34957 13.0344 1.59268 12.3253 1.46904 11.2053C1.26297 9.34745 0.910363 4.96834 0.907092 4.92451C0.88485 4.65433 1.08634 4.41751 1.35652 4.39592C1.62277 4.38873 1.86351 4.57582 1.8851 4.84535C1.88719 4.87374 2.03133 6.66204 2.18842 8.4314L2.21997 8.78449C2.29909 9.66396 2.37929 10.509 2.44443 11.0974C2.51442 11.7339 2.85787 12.0623 3.46365 12.0747C5.09911 12.1094 6.76793 12.1114 8.56694 12.0787C9.21066 12.0662 9.55868 11.7444 9.63064 11.0928C9.83344 9.26502 10.1867 4.88983 10.1906 4.84535C10.2122 4.57582 10.451 4.38742 10.7186 4.39592ZM7.42199 0C8.02253 0 8.55045 0.40494 8.7055 0.985202L8.87166 1.81013C8.92535 2.08055 9.16267 2.27804 9.43745 2.28238L11.5843 2.28245C11.8551 2.28245 12.0749 2.50226 12.0749 2.77309C12.0749 3.04392 11.8551 3.26373 11.5843 3.26373L9.45662 3.26363C9.45332 3.26369 9.45001 3.26373 9.44669 3.26373L9.43073 3.26307L2.64396 3.26365C2.63869 3.2637 2.63341 3.26373 2.62812 3.26373L2.61805 3.26307L0.490638 3.26373C0.219806 3.26373 0 3.04392 0 2.77309C0 2.50226 0.219806 2.28245 0.490638 2.28245L2.63702 2.2818L2.7031 2.27761C2.94927 2.24568 3.15385 2.05872 3.2038 1.81013L3.36277 1.01464C3.52435 0.40494 4.05228 0 4.65282 0H7.42199ZM7.42199 0.981277H4.65282C4.49582 0.981277 4.35779 1.0866 4.31788 1.23772L4.16545 2.00311C4.14608 2.10006 4.11787 2.19349 4.08177 2.28263H7.99323C7.95708 2.19349 7.92881 2.10006 7.90935 2.00311L7.75039 1.20762C7.71702 1.0866 7.57899 0.981277 7.42199 0.981277Z" fill="#D93939"/>
</svg>
